<?xml version="1.0" encoding="UTF-8"?>
<svg id="Layer_1" data-name="Layer 1" xmlns="http://www.w3.org/2000/svg" width="381.35" height="52.66" viewBox="0 0 381.35 52.66">
  <path d="M5.55,41.77H0V14.36h4.41l1.14,2.35c.69-.8,1.51-1.5,2.46-2.09.95-.59,2.12-.89,3.49-.89.53,0,1.13.07,1.8.2.67.13,1.35.36,2.06.69.71.32,1.38.76,2.03,1.32.65.55,1.2,1.27,1.66,2.15.65-1.18,1.63-2.2,2.95-3.06s2.72-1.29,4.21-1.29c.99,0,2.04.15,3.15.46s2.14.88,3.09,1.72c.95.84,1.74,2,2.35,3.49.61,1.49.92,3.41.92,5.78v16.59h-5.21v-16.65c0-2.36-.49-4.01-1.46-4.95s-2.26-1.4-3.86-1.4c-1.22,0-2.29.52-3.2,1.54-.92,1.03-1.37,2.65-1.37,4.86v16.59h-5.21v-16.65c0-2.36-.49-4.01-1.46-4.95s-2.26-1.4-3.86-1.4c-1.14,0-2.15.44-3,1.32-.86.88-1.36,2.25-1.52,4.12v17.57Z"/>
  <path d="M69.35,14.36v27.41h-4.69l-.86-3.15c-.95,1.26-2.17,2.21-3.66,2.86-1.49.65-3,.97-4.52.97-1.91,0-3.69-.37-5.35-1.12s-3.11-1.76-4.35-3.06c-1.24-1.3-2.22-2.82-2.95-4.58-.72-1.75-1.09-3.62-1.09-5.61s.36-3.85,1.09-5.61c.72-1.75,1.71-3.28,2.95-4.58,1.24-1.3,2.69-2.32,4.35-3.06,1.66-.74,3.44-1.12,5.35-1.12,1.52,0,2.99.3,4.41.89,1.41.59,2.67,1.52,3.78,2.78l.86-3.03h4.69ZM55.62,37.54c1.11,0,2.15-.25,3.15-.74s1.85-1.17,2.58-2.03,1.3-1.86,1.72-3c.42-1.14.63-2.36.63-3.66s-.21-2.52-.63-3.66c-.42-1.14-.99-2.15-1.72-3s-1.58-1.54-2.58-2.03-2.04-.74-3.15-.74-2.16.25-3.15.74c-.99.5-1.85,1.17-2.58,2.03s-1.3,1.86-1.72,3-.63,2.37-.63,3.66.21,2.52.63,3.66.99,2.15,1.72,3,1.58,1.54,2.58,2.03c.99.5,2.04.74,3.15.74Z"/>
  <path d="M103.51,0v41.77h-4.41l-1.14-2.86c-1.11,1.11-2.37,1.97-3.78,2.6-1.41.63-3.03.94-4.86.94s-3.66-.37-5.26-1.12c-1.6-.74-3-1.76-4.18-3.06-1.18-1.3-2.11-2.82-2.78-4.58-.67-1.75-1-3.62-1-5.61s.33-3.85,1-5.61c.67-1.75,1.59-3.28,2.78-4.58,1.18-1.3,2.58-2.32,4.18-3.06,1.6-.74,3.36-1.12,5.26-1.12s3.57.31,4.98.94c1.41.63,2.63,1.52,3.66,2.66V0h5.55ZM89.75,37.54c1.15,0,2.21-.19,3.19-.57.98-.38,1.84-.96,2.58-1.75.75-.78,1.33-1.76,1.75-2.95s.63-2.58.63-4.18c0-1.72-.21-3.17-.63-4.35-.42-1.18-1-2.15-1.75-2.89-.75-.74-1.61-1.28-2.58-1.6-.98-.32-2.04-.49-3.19-.49s-2.16.24-3.16.72-1.86,1.13-2.58,1.97c-.73.84-1.3,1.83-1.72,2.98s-.63,2.37-.63,3.66.21,2.52.63,3.66,1,2.15,1.72,3,1.59,1.54,2.58,2.03,2.05.74,3.16.74Z"/>
  <path d="M124.57,42.46c-1.98,0-3.84-.37-5.58-1.12-1.74-.74-3.25-1.76-4.55-3.06s-2.32-2.82-3.06-4.58c-.74-1.75-1.12-3.62-1.12-5.61s.35-3.85,1.06-5.61c.71-1.75,1.66-3.28,2.86-4.58,1.2-1.3,2.6-2.32,4.21-3.06,1.6-.74,3.32-1.12,5.15-1.12s3.59.32,5.18.97c1.58.65,2.96,1.66,4.12,3.03,1.16,1.37,2.07,3.12,2.72,5.24s.97,4.64.97,7.58h-20.37c.27.99.69,1.92,1.26,2.78.57.86,1.25,1.6,2.03,2.23.78.63,1.66,1.12,2.63,1.46.97.34,1.99.51,3.06.51,1.45,0,2.79-.27,4.03-.8,1.24-.53,2.3-1.24,3.18-2.12l3.43,3.43c-1.34,1.33-2.97,2.4-4.89,3.2-1.93.8-4.03,1.2-6.32,1.2ZM123.54,18.77c-.88,0-1.71.17-2.49.52-.78.34-1.51.82-2.17,1.43-.67.61-1.24,1.34-1.72,2.17-.48.84-.83,1.75-1.06,2.75h14.48c-.08-.92-.29-1.79-.63-2.63-.34-.84-.82-1.57-1.43-2.2-.61-.63-1.33-1.12-2.15-1.49-.82-.36-1.76-.54-2.83-.54Z"/>
  <path d="M172.21,10v41.77h-4.41l-1.14-2.86c-1.11,1.11-2.37,1.97-3.78,2.6-1.41.63-3.03.94-4.86.94s-3.66-.37-5.26-1.12c-1.6-.74-3-1.76-4.18-3.06-1.18-1.3-2.11-2.82-2.78-4.58-.67-1.75-1-3.62-1-5.61s.33-3.85,1-5.61c.67-1.75,1.59-3.28,2.78-4.58,1.18-1.3,2.58-2.32,4.18-3.06,1.6-.74,3.36-1.12,5.26-1.12s3.57.31,4.98.94c1.41.63,2.63,1.52,3.66,2.66V10h5.55ZM158.44,47.54c1.15,0,2.21-.19,3.19-.57.98-.38,1.84-.96,2.58-1.75.75-.78,1.33-1.76,1.75-2.95s.63-2.58.63-4.18c0-1.72-.21-3.17-.63-4.35-.42-1.18-1-2.15-1.75-2.89-.75-.74-1.61-1.28-2.58-1.6-.98-.32-2.04-.49-3.19-.49s-2.16.24-3.16.72-1.86,1.13-2.58,1.97c-.73.84-1.3,1.83-1.72,2.98s-.63,2.37-.63,3.66.21,2.52.63,3.66,1,2.15,1.72,3,1.59,1.54,2.58,2.03,2.05.74,3.16.74Z"/>
  <path d="M184.39,18.41c-.99,0-1.83-.35-2.52-1.06s-1.03-1.55-1.03-2.55.34-1.83,1.03-2.52,1.53-1.03,2.52-1.03,1.83.34,2.52,1.03c.69.69,1.03,1.53,1.03,2.52s-.34,1.84-1.03,2.55c-.69.71-1.53,1.06-2.52,1.06ZM187.25,51.77h-5.61v-27.41h5.55l.06,27.41Z"/>
  <path d="M217.29,51.77v-22.49h-13.1v22.49h-5.55v-22.49h-4.69v-3.79l4.69-1.13v-3.32c0-1.95.25-3.63.74-5.06s1.17-2.6,2.03-3.52c.86-.92,1.84-1.59,2.95-2.03s2.29-.66,3.55-.66c1.56,0,3.15.32,4.75.97v4.06c-1.37-.42-2.56-.63-3.55-.63-1.56,0-2.77.48-3.63,1.43-.86.95-1.29,2.48-1.29,4.58v4.18h13.1v-3.32c0-1.95.25-3.63.74-5.06.5-1.43,1.17-2.6,2.03-3.52.86-.92,1.84-1.59,2.95-2.03s2.29-.66,3.55-.66c1.56,0,3.15.32,4.75.97v4.06c-1.37-.42-2.56-.63-3.55-.63-1.56,0-2.77.48-3.63,1.43-.86.95-1.29,2.48-1.29,4.58v4.18h8.47v4.92h-8.47v22.49h-5.55Z"/>
  <path d="M247.56,52.46c-1.98,0-3.84-.37-5.58-1.12-1.74-.74-3.25-1.76-4.55-3.06s-2.32-2.82-3.06-4.58c-.74-1.75-1.12-3.62-1.12-5.61s.35-3.85,1.06-5.61c.71-1.75,1.66-3.28,2.86-4.58,1.2-1.3,2.6-2.32,4.21-3.06,1.6-.74,3.32-1.12,5.15-1.12s3.59.32,5.18.97c1.58.65,2.96,1.66,4.12,3.03,1.16,1.37,2.07,3.12,2.72,5.24s.97,4.64.97,7.58h-20.37c.27.99.69,1.92,1.26,2.78.57.86,1.25,1.6,2.03,2.23.78.63,1.66,1.12,2.63,1.46.97.34,1.99.51,3.06.51,1.45,0,2.79-.27,4.03-.8,1.24-.53,2.3-1.24,3.18-2.12l3.43,3.43c-1.34,1.33-2.97,2.4-4.89,3.2-1.93.8-4.03,1.2-6.32,1.2ZM246.53,28.77c-.88,0-1.71.17-2.49.52-.78.34-1.51.82-2.17,1.43-.67.61-1.24,1.34-1.72,2.17-.48.84-.83,1.75-1.06,2.75h14.48c-.08-.92-.29-1.79-.63-2.63-.34-.84-.82-1.57-1.43-2.2-.61-.63-1.33-1.12-2.15-1.49-.82-.36-1.76-.54-2.83-.54Z"/>
  <path d="M280.64,29.11c-.23-.08-.5-.15-.8-.23-.31-.08-.63-.11-.97-.11-1.11,0-2.14.18-3.09.54-.95.36-1.77.85-2.46,1.46-.69.61-1.23,1.33-1.63,2.15-.4.82-.6,1.69-.6,2.6l-.06,16.25h-5.55v-27.41h4.41l1.14,3.03c.76-1.11,1.76-1.99,3-2.66,1.24-.67,2.79-1,4.66-1,1.22,0,2.61.17,4.18.51l-1.43,5.21c-.27-.11-.53-.23-.8-.34Z"/>
  <path d="M298.38,52.46c-1.98,0-3.84-.37-5.58-1.12-1.74-.74-3.25-1.76-4.55-3.06s-2.32-2.82-3.06-4.58c-.74-1.75-1.12-3.62-1.12-5.61s.35-3.85,1.06-5.61c.71-1.75,1.66-3.28,2.86-4.58,1.2-1.3,2.6-2.32,4.21-3.06,1.6-.74,3.32-1.12,5.15-1.12s3.59.32,5.18.97c1.58.65,2.96,1.66,4.12,3.03,1.16,1.37,2.07,3.12,2.72,5.24s.97,4.64.97,7.58h-20.37c.27.99.69,1.92,1.26,2.78.57.86,1.25,1.6,2.03,2.23.78.63,1.66,1.12,2.63,1.46.97.34,1.99.51,3.06.51,1.45,0,2.79-.27,4.03-.8,1.24-.53,2.3-1.24,3.18-2.12l3.43,3.43c-1.34,1.33-2.97,2.4-4.89,3.2-1.93.8-4.03,1.2-6.32,1.2ZM297.35,28.77c-.88,0-1.71.17-2.49.52-.78.34-1.51.82-2.17,1.43-.67.61-1.24,1.34-1.72,2.17-.48.84-.83,1.75-1.06,2.75h14.48c-.08-.92-.29-1.79-.63-2.63-.34-.84-.82-1.57-1.43-2.2-.61-.63-1.33-1.12-2.15-1.49-.82-.36-1.76-.54-2.83-.54Z"/>
  <path d="M323.44,51.77h-5.55v-27.41h4.41l1.14,2.4c.92-.88,2.02-1.6,3.32-2.17s2.71-.86,4.23-.86c.99,0,2.12.15,3.38.46s2.43.88,3.52,1.72c1.09.84,2,2,2.75,3.49.74,1.49,1.12,3.41,1.12,5.78v16.59h-5.26v-16.65c0-1.18-.18-2.18-.54-3-.36-.82-.84-1.48-1.43-1.97-.59-.5-1.26-.85-2-1.06-.74-.21-1.52-.31-2.32-.31-.61,0-1.31.11-2.09.34-.78.23-1.52.6-2.2,1.12-.69.52-1.27,1.16-1.75,1.95-.48.78-.71,1.75-.71,2.89v16.71Z"/>
  <path d="M361.09,52.63c-1.53.11-2.9-.11-4.12-.66-1.22-.55-2.21-1.53-2.98-2.92-.76-1.39-1.14-3.35-1.14-5.87v-13.9h-4.01v-3.79l4.01-1.13v-7.32h5.55v7.32h7.44v4.92h-7.44v14.76c0,.92.1,1.64.31,2.17.21.53.56.93,1.06,1.2.5.27,1.14.4,1.95.4s1.77-.08,2.92-.23l1.09,4.06c-1.56.53-3.11.86-4.63.97Z"/>
  <path d="M374.25,48.8c0-.99.34-1.84,1.03-2.55s1.53-1.06,2.52-1.06,1.83.35,2.52,1.06c.69.71,1.03,1.55,1.03,2.55s-.34,1.83-1.03,2.52-1.53,1.03-2.52,1.03-1.83-.34-2.52-1.03c-.69-.69-1.03-1.52-1.03-2.52Z"/>
</svg>